<svg width="85" height="85" viewBox="0 0 85 85" fill="none" xmlns="http://www.w3.org/2000/svg">
<circle cx="42.2593" cy="42.2593" r="42.2593" fill="#101010"/>
<path d="M63.5491 23.4736H20.9684C17.1736 23.4736 14.0859 26.5057 14.0859 30.2323V54.2788C14.0859 58.0053 17.1736 61.0374 20.9684 61.0374H63.5491C67.344 61.0374 70.4316 58.0053 70.4316 54.2788V30.233C70.4324 26.5057 67.3447 23.4736 63.5491 23.4736ZM60.1861 27.8829L42.2588 39.2249L24.3315 27.8829H60.1861ZM63.5491 56.6289H20.9684C19.6491 56.6289 18.576 55.5744 18.576 54.2795V30.3579L40.8736 44.4381C40.9035 44.4565 40.9357 44.469 40.9664 44.4859C40.9986 44.5035 41.0315 44.5204 41.0644 44.5366C41.2373 44.624 41.4154 44.6946 41.5973 44.7409C41.616 44.746 41.6347 44.7482 41.6534 44.7526C41.8532 44.7989 42.0552 44.8276 42.2573 44.8276H42.2588C42.2603 44.8276 42.2618 44.8276 42.2618 44.8276C42.4638 44.8276 42.6659 44.7997 42.8657 44.7526C42.8844 44.7482 42.9031 44.746 42.9218 44.7409C43.1037 44.6946 43.281 44.624 43.4546 44.5366C43.4876 44.5204 43.5205 44.5035 43.5527 44.4859C43.5834 44.469 43.6155 44.4565 43.6455 44.4381L65.9431 30.3579V54.2788C65.9423 55.5744 64.8685 56.6289 63.5491 56.6289Z" fill="white"/>
</svg>
